<svg xmlns="http://www.w3.org/2000/svg" width="25" height="24" fill="none"><g clip-path="url(#a)"><path d="M21 0H4C2 0 1 1 1 3v18c0 2 1 3 3 3h17c2 0 4-1 4-3V3c0-2-2-3-4-3Z" fill="#fff"/><path d="M9 7a2 2 0 1 1-4 0 2 2 0 0 1 4 0Zm0 3v9a1 1 0 0 1-1 1H6a1 1 0 0 1 0-1v-9a1 1 0 0 1 0-1h2a1 1 0 0 1 1 1Zm11 5v4l-1 1h-2v-5c0-1 0-3-2-3l-2 2v6h-2l-1-1v-9l1-1h2v2l3-2c4 0 4 4 4 6Z" fill="#090F1D"/></g><defs><clipPath id="a"><path fill="#fff" transform="translate(1)" d="M0 0h24v24H0z"/></clipPath></defs></svg>